<?xml version="1.0" encoding="UTF-8"?>
<svg width="192px" height="58px" viewBox="0 0 192 58" version="1.1" xmlns="http://www.w3.org/2000/svg" xmlns:xlink="http://www.w3.org/1999/xlink">
    <!-- Generator: Sketch 43.1 (39012) - http://www.bohemiancoding.com/sketch -->
    <title>Planner logo white</title>
    <desc>Created with Sketch.</desc>
    <defs></defs>
    <g id="Page-1" stroke="none" stroke-width="1" fill="none" fill-rule="evenodd">
        <g id="White-Logos" transform="translate(-1273.000000, -25.000000)" fill="#FFFFFF">
            <g id="Planner-logo-white" transform="translate(1273.000000, 25.000000)">
                <g id="service" fill-rule="nonzero">
                    <path d="M23.1364219,0 C10.3578125,0 0,10.3586875 0,23.1364219 C0,40.707625 23.1364219,56 23.1364219,56 C23.1364219,56 46.2728437,40.707625 46.2728437,23.1364219 C46.2728437,10.3586875 35.9150312,0 23.1364219,0 Z M23.1364219,41.1185469 C13.2051719,41.1185469 5.15517188,33.0685469 5.15517188,23.1364219 C5.15517188,13.2051719 13.2052813,5.15429688 23.1364219,5.15429688 C33.0675625,5.15429688 41.1195313,13.2051719 41.1195313,23.1364219 C41.1195313,33.0686563 33.0676719,41.1185469 23.1364219,41.1185469 Z" id="Shape-Copy"></path>
                    <g id="Group-2" transform="translate(14.875000, 8.859375)">
                        <path d="M13.4199597,7.13149858 L3.17787298,7.13149858 L3.17787298,22.1566406 L13.3927923,22.1566406 L13.3927923,7.13149858 L13.4199597,7.13149858 Z M10.6760585,13.9635831 L8.96451613,13.9635831 L8.96451613,18.7542081 L7.60614919,18.7542081 L7.60614919,13.9635831 L5.89460685,13.9635831 L5.89460685,12.6026101 L7.60614919,12.6026101 L7.60614919,10.8877841 L8.96451613,10.8877841 L8.96451613,12.6026101 L10.6760585,12.6026101 L10.6760585,13.9635831 Z" id="Shape"></path>
                        <path d="M15.8378528,4.05569957 L8.63850806,4.05569957 L8.63850806,3.26633523 C8.63850806,3.18467685 8.55700605,1.46985085 10.078377,0.925461648 C10.2142137,1.06155895 10.4315524,1.17043679 10.6217238,1.17043679 C10.9205645,1.22487571 11.1922379,1.00712003 11.2194052,0.707705966 C11.2737399,0.408291903 11.0564012,0.136097301 10.7575605,0.108877841 C10.4858871,0.0816583807 10.0512097,0.326633523 9.96970766,0.598828125 C8.17666331,1.25209517 8.28533266,3.26633523 8.28533266,3.29355469 L8.28533266,4.08291903 L0.787147177,4.08291903 C0.406804435,4.08291903 0.10796371,5.0628196 0.10796371,5.44389205 C0.10796371,5.82496449 0.406804435,6.12437855 0.787147177,6.12437855 L1.49349798,6.12437855 L1.49349798,23.1365412 C1.49349798,23.5176136 1.79233871,23.8442472 2.17268145,23.8442472 L14.5066532,23.8442472 C14.886996,23.8442472 15.131502,23.5176136 15.131502,23.1365412 L15.131502,6.09715909 L15.8650202,6.09715909 C16.2453629,6.09715909 16.5442036,5.79774503 16.5442036,5.41667259 C16.5170363,5.03560014 16.2181956,4.05569957 15.8378528,4.05569957 Z M14.4251512,23.1637607 L2.17268145,23.1637607 L2.17268145,6.09715909 L14.4251512,6.09715909 L14.4251512,23.1637607 Z" id="Shape"></path>
                    </g>
                </g>
                <path d="M61.32,29.74 L59.62,29.74 C59.6466668,30.3800032 59.7799988,30.9233311 60.02,31.37 C60.2600012,31.8166689 60.579998,32.1766653 60.98,32.45 C61.380002,32.7233347 61.8399974,32.9199994 62.36,33.04 C62.8800026,33.1600006 63.4266638,33.22 64,33.22 C64.5200026,33.22 65.0433307,33.1700005 65.57,33.07 C66.0966693,32.9699995 66.5699979,32.7933346 66.99,32.54 C67.4100021,32.2866654 67.7499987,31.9533354 68.01,31.54 C68.2700013,31.1266646 68.4,30.6066698 68.4,29.98 C68.4,29.4866642 68.3033343,29.073335 68.11,28.74 C67.9166657,28.406665 67.6633349,28.1300011 67.35,27.91 C67.0366651,27.6899989 66.6766687,27.513334 66.27,27.38 C65.8633313,27.246666 65.4466688,27.1333338 65.02,27.04 C64.619998,26.9466662 64.220002,26.8566671 63.82,26.77 C63.419998,26.6833329 63.0600016,26.5766673 62.74,26.45 C62.4199984,26.3233327 62.1566677,26.1633343 61.95,25.97 C61.7433323,25.7766657 61.64,25.5333348 61.64,25.24 C61.64,24.973332 61.706666,24.7566675 61.84,24.59 C61.973334,24.4233325 62.1466656,24.2900005 62.36,24.19 C62.5733344,24.0899995 62.8099987,24.0200002 63.07,23.98 C63.3300013,23.9399998 63.5866654,23.92 63.84,23.92 C64.1200014,23.92 64.3966653,23.9499997 64.67,24.01 C64.9433347,24.0700003 65.1933322,24.166666 65.42,24.3 C65.6466678,24.433334 65.8333326,24.6099989 65.98,24.83 C66.1266674,25.0500011 66.2133332,25.326665 66.24,25.66 L67.94,25.66 C67.8999998,25.0333302 67.7666678,24.5100021 67.54,24.09 C67.3133322,23.6699979 67.0100019,23.3366679 66.63,23.09 C66.2499981,22.8433321 65.8133358,22.6700005 65.32,22.57 C64.8266642,22.4699995 64.2866696,22.42 63.7,22.42 C63.2466644,22.42 62.7900023,22.4766661 62.33,22.59 C61.8699977,22.7033339 61.4566685,22.8766655 61.09,23.11 C60.7233315,23.3433345 60.4233345,23.6466648 60.19,24.02 C59.9566655,24.3933352 59.84,24.8399974 59.84,25.36 C59.84,26.02667 60.006665,26.5466648 60.34,26.92 C60.673335,27.2933352 61.0899975,27.5833323 61.59,27.79 C62.0900025,27.9966677 62.6333304,28.1566661 63.22,28.27 C63.8066696,28.3833339 64.3499975,28.5099993 64.85,28.65 C65.3500025,28.7900007 65.766665,28.9733322 66.1,29.2 C66.433335,29.4266678 66.6,29.7599978 66.6,30.2 C66.6,30.5200016 66.5200008,30.7833323 66.36,30.99 C66.1999992,31.1966677 65.9966679,31.3533328 65.75,31.46 C65.5033321,31.5666672 65.2333348,31.6399998 64.94,31.68 C64.6466652,31.7200002 64.366668,31.74 64.1,31.74 C63.7533316,31.74 63.4166683,31.706667 63.09,31.64 C62.7633317,31.573333 62.4700013,31.4633341 62.21,31.31 C61.9499987,31.1566659 61.7400008,30.9500013 61.58,30.69 C61.4199992,30.4299987 61.3333334,30.1133352 61.32,29.74 Z M72.08,20.8 L72.08,18.72 L70.38,18.72 L70.38,20.8 L72.08,20.8 Z M70.38,22.66 L70.38,33 L72.08,33 L72.08,22.66 L70.38,22.66 Z M74.72,22.66 L74.72,33 L76.42,33 L76.42,26.56 C76.42,26.359999 76.4699995,26.1100015 76.57,25.81 C76.6700005,25.5099985 76.8299989,25.2200014 77.05,24.94 C77.2700011,24.6599986 77.5566649,24.420001 77.91,24.22 C78.2633351,24.019999 78.6866642,23.92 79.18,23.92 C79.5666686,23.92 79.8833321,23.9766661 80.13,24.09 C80.3766679,24.2033339 80.5733326,24.3633323 80.72,24.57 C80.8666674,24.7766677 80.9699997,25.0199986 81.03,25.3 C81.0900003,25.5800014 81.12,25.886665 81.12,26.22 L81.12,33 L82.82,33 L82.82,26.56 C82.82,25.759996 83.0599976,25.1200024 83.54,24.64 C84.0200024,24.1599976 84.6799958,23.92 85.52,23.92 C85.9333354,23.92 86.2699987,23.9799994 86.53,24.1 C86.7900013,24.2200006 86.9933326,24.3833323 87.14,24.59 C87.2866674,24.7966677 87.3866664,25.0399986 87.44,25.32 C87.4933336,25.6000014 87.52,25.8999984 87.52,26.22 L87.52,33 L89.22,33 L89.22,25.42 C89.22,24.886664 89.1366675,24.4300019 88.97,24.05 C88.8033325,23.6699981 88.5700015,23.3600012 88.27,23.12 C87.9699985,22.8799988 87.6100021,22.7033339 87.19,22.59 C86.7699979,22.4766661 86.3000026,22.42 85.78,22.42 C85.0999966,22.42 84.4766695,22.5733318 83.91,22.88 C83.3433305,23.1866682 82.8866684,23.6199972 82.54,24.18 C82.3266656,23.5399968 81.9600026,23.086668 81.44,22.82 C80.9199974,22.553332 80.3400032,22.42 79.7,22.42 C78.2466594,22.42 77.1333372,23.0066608 76.36,24.18 L76.32,24.18 L76.32,22.66 L74.72,22.66 Z M91.84,22.66 L93.54,22.66 L93.54,24.06 L93.58,24.06 C93.8600014,23.4866638 94.299997,23.0700013 94.9,22.81 C95.500003,22.5499987 96.1599964,22.42 96.88,22.42 C97.680004,22.42 98.3766637,22.5666652 98.97,22.86 C99.5633363,23.1533348 100.056665,23.5499975 100.45,24.05 C100.843335,24.5500025 101.139999,25.1266634 101.34,25.78 C101.540001,26.4333366 101.64,27.126663 101.64,27.86 C101.64,28.593337 101.543334,29.2866634 101.35,29.94 C101.156666,30.5933366 100.863335,31.1633309 100.47,31.65 C100.076665,32.1366691 99.5833363,32.5199986 98.99,32.8 C98.3966637,33.0800014 97.7066706,33.22 96.92,33.22 C96.6666654,33.22 96.3833349,33.1933336 96.07,33.14 C95.7566651,33.0866664 95.4466682,33.0000006 95.14,32.88 C94.8333318,32.7599994 94.5433347,32.5966677 94.27,32.39 C93.9966653,32.1833323 93.7666676,31.9266682 93.58,31.62 L93.54,31.62 L93.54,36.94 L91.84,36.94 L91.84,22.66 Z M99.84,27.74 C99.84,27.2599976 99.7766673,26.7900023 99.65,26.33 C99.5233327,25.8699977 99.3300013,25.4600018 99.07,25.1 C98.8099987,24.7399982 98.4766687,24.4533344 98.07,24.24 C97.6633313,24.0266656 97.1866694,23.92 96.64,23.92 C96.0666638,23.92 95.580002,24.0333322 95.18,24.26 C94.779998,24.4866678 94.4533346,24.7833315 94.2,25.15 C93.9466654,25.5166685 93.7633339,25.933331 93.65,26.4 C93.5366661,26.866669 93.48,27.3399976 93.48,27.82 C93.48,28.3266692 93.5399994,28.8166643 93.66,29.29 C93.7800006,29.7633357 93.9699987,30.1799982 94.23,30.54 C94.4900013,30.9000018 94.8266646,31.1899989 95.24,31.41 C95.6533354,31.6300011 96.1533304,31.74 96.74,31.74 C97.3266696,31.74 97.8166647,31.6266678 98.21,31.4 C98.6033353,31.1733322 98.9199988,30.8733352 99.16,30.5 C99.4000012,30.1266648 99.5733328,29.7000024 99.68,29.22 C99.7866672,28.7399976 99.84,28.2466692 99.84,27.74 Z M103.74,18.72 L103.74,33 L105.44,33 L105.44,18.72 L103.74,18.72 Z M115.26,26.84 C115.233333,26.439998 115.143334,26.0600018 114.99,25.7 C114.836666,25.3399982 114.630001,25.0300013 114.37,24.77 C114.109999,24.5099987 113.803335,24.3033341 113.45,24.15 C113.096665,23.9966659 112.706669,23.92 112.28,23.92 C111.839998,23.92 111.443335,23.9966659 111.09,24.15 C110.736665,24.3033341 110.433335,24.513332 110.18,24.78 C109.926665,25.046668 109.726667,25.3566649 109.58,25.71 C109.433333,26.0633351 109.346667,26.439998 109.32,26.84 L115.26,26.84 Z M116.9,29.72 C116.673332,30.8800058 116.173337,31.7533304 115.4,32.34 C114.626663,32.9266696 113.653339,33.22 112.48,33.22 C111.653329,33.22 110.93667,33.086668 110.33,32.82 C109.72333,32.553332 109.213335,32.1800024 108.8,31.7 C108.386665,31.2199976 108.076668,30.64667 107.87,29.98 C107.663332,29.31333 107.546667,28.5866706 107.52,27.8 C107.52,27.0133294 107.639999,26.2933366 107.88,25.64 C108.120001,24.9866634 108.456664,24.4200024 108.89,23.94 C109.323335,23.4599976 109.836664,23.086668 110.43,22.82 C111.023336,22.553332 111.67333,22.42 112.38,22.42 C113.300005,22.42 114.06333,22.6099981 114.67,22.99 C115.27667,23.3700019 115.763331,23.8533304 116.13,24.44 C116.496668,25.0266696 116.749999,25.6666632 116.89,26.36 C117.030001,27.0533368 117.086667,27.7133302 117.06,28.34 L109.32,28.34 C109.306667,28.7933356 109.359999,29.2233313 109.48,29.63 C109.600001,30.0366687 109.793332,30.3966651 110.06,30.71 C110.326668,31.0233349 110.666665,31.2733324 111.08,31.46 C111.493335,31.6466676 111.979997,31.74 112.54,31.74 C113.260004,31.74 113.849998,31.573335 114.31,31.24 C114.770002,30.906665 115.073333,30.4000034 115.22,29.72 L116.9,29.72 Z M67.12,47.3 L69.9,47.3 C69.8599998,46.63333 69.7000014,46.0566691 69.42,45.57 C69.1399986,45.0833309 68.7766689,44.6766683 68.33,44.35 C67.8833311,44.0233317 67.3766695,43.7800008 66.81,43.62 C66.2433305,43.4599992 65.6533364,43.38 65.04,43.38 C64.1999958,43.38 63.4533366,43.5199986 62.8,43.8 C62.1466634,44.0800014 61.5933356,44.4699975 61.14,44.97 C60.6866644,45.4700025 60.3433345,46.0633299 60.11,46.75 C59.8766655,47.4366701 59.76,48.179996 59.76,48.98 C59.76,49.7533372 59.8866654,50.4633301 60.14,51.11 C60.3933346,51.7566699 60.7466644,52.313331 61.2,52.78 C61.6533356,53.246669 62.2033301,53.6099987 62.85,53.87 C63.4966699,54.1300013 64.2066628,54.26 64.98,54.26 C66.3533402,54.26 67.4799956,53.9000036 68.36,53.18 C69.2400044,52.4599964 69.7733324,51.4133402 69.96,50.04 L67.22,50.04 C67.1266662,50.6800032 66.8966685,51.1899981 66.53,51.57 C66.1633315,51.9500019 65.6400034,52.14 64.96,52.14 C64.5199978,52.14 64.1466682,52.040001 63.84,51.84 C63.5333318,51.639999 63.2900009,51.3833349 63.11,51.07 C62.9299991,50.7566651 62.8000004,50.4066686 62.72,50.02 C62.6399996,49.6333314 62.6,49.2533352 62.6,48.88 C62.6,48.4933314 62.6399996,48.1033353 62.72,47.71 C62.8000004,47.3166647 62.9366657,46.9566683 63.13,46.63 C63.3233343,46.3033317 63.5733318,46.0366677 63.88,45.83 C64.1866682,45.6233323 64.5666644,45.52 65.02,45.52 C66.2333394,45.52 66.9333324,46.1133274 67.12,47.3 Z M71.56,39.72 L71.56,54 L74.4,54 L74.4,48.58 C74.4,47.5266614 74.5733316,46.7700023 74.92,46.31 C75.2666684,45.8499977 75.8266628,45.62 76.6,45.62 C77.2800034,45.62 77.753332,45.8299979 78.02,46.25 C78.286668,46.6700021 78.42,47.3066624 78.42,48.16 L78.42,54 L81.26,54 L81.26,47.64 C81.26,46.9999968 81.2033339,46.4166693 81.09,45.89 C80.9766661,45.3633307 80.7800014,44.9166685 80.5,44.55 C80.2199986,44.1833315 79.8366691,43.8966677 79.35,43.69 C78.8633309,43.4833323 78.2400038,43.38 77.48,43.38 C76.946664,43.38 76.4000028,43.5166653 75.84,43.79 C75.2799972,44.0633347 74.8200018,44.499997 74.46,45.1 L74.4,45.1 L74.4,39.72 L71.56,39.72 Z M93.12,54 L93.12,43.66 L90.28,43.66 L90.28,49.08 C90.28,50.1333386 90.1066684,50.8899977 89.76,51.35 C89.4133316,51.8100023 88.8533372,52.04 88.08,52.04 C87.3999966,52.04 86.926668,51.8300021 86.66,51.41 C86.393332,50.9899979 86.26,50.3533376 86.26,49.5 L86.26,43.66 L83.42,43.66 L83.42,50.02 C83.42,50.6600032 83.4766661,51.2433307 83.59,51.77 C83.7033339,52.2966693 83.8999986,52.7433315 84.18,53.11 C84.4600014,53.4766685 84.8433309,53.759999 85.33,53.96 C85.8166691,54.160001 86.4399962,54.26 87.2,54.26 C87.800003,54.26 88.3866638,54.126668 88.96,53.86 C89.5333362,53.593332 89.9999982,53.160003 90.36,52.56 L90.42,52.56 L90.42,54 L93.12,54 Z M95.28,43.66 L95.28,54 L98.12,54 L98.12,49.34 C98.12,48.873331 98.1666662,48.440002 98.26,48.04 C98.3533338,47.639998 98.5099989,47.2900015 98.73,46.99 C98.9500011,46.6899985 99.2399982,46.4533342 99.6,46.28 C99.9600018,46.1066658 100.399997,46.02 100.92,46.02 C101.093334,46.02 101.273332,46.0299999 101.46,46.05 C101.646668,46.0700001 101.806666,46.0933332 101.94,46.12 L101.94,43.48 C101.713332,43.413333 101.506668,43.38 101.32,43.38 C100.959998,43.38 100.613335,43.4333328 100.28,43.54 C99.946665,43.6466672 99.6333348,43.7966657 99.34,43.99 C99.0466652,44.1833343 98.7866678,44.4166653 98.56,44.69 C98.3333322,44.9633347 98.153334,45.2599984 98.02,45.58 L97.98,45.58 L97.98,43.66 L95.28,43.66 Z M110.1,47.3 L112.88,47.3 C112.84,46.63333 112.680001,46.0566691 112.4,45.57 C112.119999,45.0833309 111.756669,44.6766683 111.31,44.35 C110.863331,44.0233317 110.356669,43.7800008 109.79,43.62 C109.22333,43.4599992 108.633336,43.38 108.02,43.38 C107.179996,43.38 106.433337,43.5199986 105.78,43.8 C105.126663,44.0800014 104.573336,44.4699975 104.12,44.97 C103.666664,45.4700025 103.323334,46.0633299 103.09,46.75 C102.856665,47.4366701 102.74,48.179996 102.74,48.98 C102.74,49.7533372 102.866665,50.4633301 103.12,51.11 C103.373335,51.7566699 103.726664,52.313331 104.18,52.78 C104.633336,53.246669 105.18333,53.6099987 105.83,53.87 C106.47667,54.1300013 107.186663,54.26 107.96,54.26 C109.33334,54.26 110.459996,53.9000036 111.34,53.18 C112.220004,52.4599964 112.753332,51.4133402 112.94,50.04 L110.2,50.04 C110.106666,50.6800032 109.876668,51.1899981 109.51,51.57 C109.143331,51.9500019 108.620003,52.14 107.94,52.14 C107.499998,52.14 107.126668,52.040001 106.82,51.84 C106.513332,51.639999 106.270001,51.3833349 106.09,51.07 C105.909999,50.7566651 105.78,50.4066686 105.7,50.02 C105.62,49.6333314 105.58,49.2533352 105.58,48.88 C105.58,48.4933314 105.62,48.1033353 105.7,47.71 C105.78,47.3166647 105.916666,46.9566683 106.11,46.63 C106.303334,46.3033317 106.553332,46.0366677 106.86,45.83 C107.166668,45.6233323 107.546664,45.52 108,45.52 C109.213339,45.52 109.913332,46.1133274 110.1,47.3 Z M114.54,39.72 L114.54,54 L117.38,54 L117.38,48.58 C117.38,47.5266614 117.553332,46.7700023 117.9,46.31 C118.246668,45.8499977 118.806663,45.62 119.58,45.62 C120.260003,45.62 120.733332,45.8299979 121,46.25 C121.266668,46.6700021 121.4,47.3066624 121.4,48.16 L121.4,54 L124.24,54 L124.24,47.64 C124.24,46.9999968 124.183334,46.4166693 124.07,45.89 C123.956666,45.3633307 123.760001,44.9166685 123.48,44.55 C123.199999,44.1833315 122.816669,43.8966677 122.33,43.69 C121.843331,43.4833323 121.220004,43.38 120.46,43.38 C119.926664,43.38 119.380003,43.5166653 118.82,43.79 C118.259997,44.0633347 117.800002,44.499997 117.44,45.1 L117.38,45.1 L117.38,39.72 L114.54,39.72 Z M126.66,43.66 L128.36,43.66 L128.36,45.06 L128.4,45.06 C128.680001,44.4866638 129.119997,44.0700013 129.72,43.81 C130.320003,43.5499987 130.979996,43.42 131.7,43.42 C132.500004,43.42 133.196664,43.5666652 133.79,43.86 C134.383336,44.1533348 134.876665,44.5499975 135.27,45.05 C135.663335,45.5500025 135.959999,46.1266634 136.16,46.78 C136.360001,47.4333366 136.46,48.126663 136.46,48.86 C136.46,49.593337 136.363334,50.2866634 136.17,50.94 C135.976666,51.5933366 135.683335,52.1633309 135.29,52.65 C134.896665,53.1366691 134.403336,53.5199986 133.81,53.8 C133.216664,54.0800014 132.526671,54.22 131.74,54.22 C131.486665,54.22 131.203335,54.1933336 130.89,54.14 C130.576665,54.0866664 130.266668,54.0000006 129.96,53.88 C129.653332,53.7599994 129.363335,53.5966677 129.09,53.39 C128.816665,53.1833323 128.586668,52.9266682 128.4,52.62 L128.36,52.62 L128.36,57.94 L126.66,57.94 L126.66,43.66 Z M134.66,48.74 C134.66,48.2599976 134.596667,47.7900023 134.47,47.33 C134.343333,46.8699977 134.150001,46.4600018 133.89,46.1 C133.629999,45.7399982 133.296669,45.4533344 132.89,45.24 C132.483331,45.0266656 132.006669,44.92 131.46,44.92 C130.886664,44.92 130.400002,45.0333322 130,45.26 C129.599998,45.4866678 129.273335,45.7833315 129.02,46.15 C128.766665,46.5166685 128.583334,46.933331 128.47,47.4 C128.356666,47.866669 128.3,48.3399976 128.3,48.82 C128.3,49.3266692 128.359999,49.8166643 128.48,50.29 C128.600001,50.7633357 128.789999,51.1799982 129.05,51.54 C129.310001,51.9000018 129.646665,52.1899989 130.06,52.41 C130.473335,52.6300011 130.97333,52.74 131.56,52.74 C132.14667,52.74 132.636665,52.6266678 133.03,52.4 C133.423335,52.1733322 133.739999,51.8733352 133.98,51.5 C134.220001,51.1266648 134.393333,50.7000024 134.5,50.22 C134.606667,49.7399976 134.66,49.2466692 134.66,48.74 Z M138.56,39.72 L138.56,54 L140.26,54 L140.26,39.72 L138.56,39.72 Z M152.06,53.96 C151.766665,54.1333342 151.360003,54.22 150.84,54.22 C150.399998,54.22 150.050001,54.0966679 149.79,53.85 C149.529999,53.6033321 149.4,53.2000028 149.4,52.64 C148.933331,53.2000028 148.390003,53.6033321 147.77,53.85 C147.149997,54.0966679 146.480004,54.22 145.76,54.22 C145.293331,54.22 144.850002,54.1666672 144.43,54.06 C144.009998,53.9533328 143.646668,53.7866678 143.34,53.56 C143.033332,53.3333322 142.790001,53.0366685 142.61,52.67 C142.429999,52.3033315 142.34,51.8600026 142.34,51.34 C142.34,50.7533304 142.439999,50.2733352 142.64,49.9 C142.840001,49.5266648 143.103332,49.2233345 143.43,48.99 C143.756668,48.7566655 144.129998,48.5800006 144.55,48.46 C144.970002,48.3399994 145.399998,48.2400004 145.84,48.16 C146.306669,48.0666662 146.749998,47.9966669 147.17,47.95 C147.590002,47.9033331 147.959998,47.8366671 148.28,47.75 C148.600002,47.6633329 148.853332,47.5366675 149.04,47.37 C149.226668,47.2033325 149.32,46.9600016 149.32,46.64 C149.32,46.2666648 149.250001,45.9666678 149.11,45.74 C148.969999,45.5133322 148.790001,45.3400006 148.57,45.22 C148.349999,45.0999994 148.103335,45.0200002 147.83,44.98 C147.556665,44.9399998 147.286668,44.92 147.02,44.92 C146.299996,44.92 145.700002,45.0566653 145.22,45.33 C144.739998,45.6033347 144.48,46.1199962 144.44,46.88 L142.74,46.88 C142.766667,46.2399968 142.899999,45.7000022 143.14,45.26 C143.380001,44.8199978 143.699998,44.4633347 144.1,44.19 C144.500002,43.9166653 144.956664,43.7200006 145.47,43.6 C145.983336,43.4799994 146.53333,43.42 147.12,43.42 C147.586669,43.42 148.049998,43.453333 148.51,43.52 C148.970002,43.586667 149.386665,43.7233323 149.76,43.93 C150.133335,44.1366677 150.433332,44.4266648 150.66,44.8 C150.886668,45.1733352 151,45.659997 151,46.26 L151,51.58 C151,51.980002 151.023333,52.2733324 151.07,52.46 C151.116667,52.6466676 151.273332,52.74 151.54,52.74 C151.686667,52.74 151.859999,52.706667 152.06,52.64 L152.06,53.96 Z M149.3,48.66 C149.086666,48.8200008 148.806668,48.9366663 148.46,49.01 C148.113332,49.0833337 147.750002,49.1433331 147.37,49.19 C146.989998,49.2366669 146.606669,49.2899997 146.22,49.35 C145.833331,49.4100003 145.486668,49.506666 145.18,49.64 C144.873332,49.773334 144.623334,49.9633321 144.43,50.21 C144.236666,50.4566679 144.14,50.7933312 144.14,51.22 C144.14,51.5000014 144.196666,51.7366657 144.31,51.93 C144.423334,52.1233343 144.569999,52.2799994 144.75,52.4 C144.930001,52.5200006 145.139999,52.6066664 145.38,52.66 C145.620001,52.7133336 145.873332,52.74 146.14,52.74 C146.700003,52.74 147.179998,52.6633341 147.58,52.51 C147.980002,52.3566659 148.306665,52.1633345 148.56,51.93 C148.813335,51.6966655 148.999999,51.4433347 149.12,51.17 C149.240001,50.8966653 149.3,50.6400012 149.3,50.4 L149.3,48.66 Z M153.64,43.66 L153.64,54 L155.34,54 L155.34,48.16 C155.34,47.693331 155.403333,47.2633353 155.53,46.87 C155.656667,46.4766647 155.846665,46.1333348 156.1,45.84 C156.353335,45.5466652 156.669998,45.3200008 157.05,45.16 C157.430002,44.9999992 157.879997,44.92 158.4,44.92 C159.053337,44.92 159.566665,45.1066648 159.94,45.48 C160.313335,45.8533352 160.5,46.3599968 160.5,47 L160.5,54 L162.2,54 L162.2,47.2 C162.2,46.6399972 162.143334,46.1300023 162.03,45.67 C161.916666,45.2099977 161.720001,44.813335 161.44,44.48 C161.159999,44.146665 160.793336,43.8866676 160.34,43.7 C159.886664,43.5133324 159.320003,43.42 158.64,43.42 C157.106659,43.42 155.98667,44.0466604 155.28,45.3 L155.24,45.3 L155.24,43.66 L153.64,43.66 Z M164.76,43.66 L164.76,54 L166.46,54 L166.46,48.16 C166.46,47.693331 166.523333,47.2633353 166.65,46.87 C166.776667,46.4766647 166.966665,46.1333348 167.22,45.84 C167.473335,45.5466652 167.789998,45.3200008 168.17,45.16 C168.550002,44.9999992 168.999997,44.92 169.52,44.92 C170.173337,44.92 170.686665,45.1066648 171.06,45.48 C171.433335,45.8533352 171.62,46.3599968 171.62,47 L171.62,54 L173.32,54 L173.32,47.2 C173.32,46.6399972 173.263334,46.1300023 173.15,45.67 C173.036666,45.2099977 172.840001,44.813335 172.56,44.48 C172.279999,44.146665 171.913336,43.8866676 171.46,43.7 C171.006664,43.5133324 170.440003,43.42 169.76,43.42 C168.226659,43.42 167.10667,44.0466604 166.4,45.3 L166.36,45.3 L166.36,43.66 L164.76,43.66 Z M183.06,47.84 C183.033333,47.439998 182.943334,47.0600018 182.79,46.7 C182.636666,46.3399982 182.430001,46.0300013 182.17,45.77 C181.909999,45.5099987 181.603335,45.3033341 181.25,45.15 C180.896665,44.9966659 180.506669,44.92 180.08,44.92 C179.639998,44.92 179.243335,44.9966659 178.89,45.15 C178.536665,45.3033341 178.233335,45.513332 177.98,45.78 C177.726665,46.046668 177.526667,46.3566649 177.38,46.71 C177.233333,47.0633351 177.146667,47.439998 177.12,47.84 L183.06,47.84 Z M184.7,50.72 C184.473332,51.8800058 183.973337,52.7533304 183.2,53.34 C182.426663,53.9266696 181.453339,54.22 180.28,54.22 C179.453329,54.22 178.73667,54.086668 178.13,53.82 C177.52333,53.553332 177.013335,53.1800024 176.6,52.7 C176.186665,52.2199976 175.876668,51.64667 175.67,50.98 C175.463332,50.31333 175.346667,49.5866706 175.32,48.8 C175.32,48.0133294 175.439999,47.2933366 175.68,46.64 C175.920001,45.9866634 176.256664,45.4200024 176.69,44.94 C177.123335,44.4599976 177.636664,44.086668 178.23,43.82 C178.823336,43.553332 179.47333,43.42 180.18,43.42 C181.100005,43.42 181.86333,43.6099981 182.47,43.99 C183.07667,44.3700019 183.563331,44.8533304 183.93,45.44 C184.296668,46.0266696 184.549999,46.6666632 184.69,47.36 C184.830001,48.0533368 184.886667,48.7133302 184.86,49.34 L177.12,49.34 C177.106667,49.7933356 177.159999,50.2233313 177.28,50.63 C177.400001,51.0366687 177.593332,51.3966651 177.86,51.71 C178.126668,52.0233349 178.466665,52.2733324 178.88,52.46 C179.293335,52.6466676 179.779997,52.74 180.34,52.74 C181.060004,52.74 181.649998,52.573335 182.11,52.24 C182.570002,51.906665 182.873333,51.4000034 183.02,50.72 L184.7,50.72 Z M186.56,43.66 L186.56,54 L188.26,54 L188.26,49.4 C188.26,48.73333 188.326666,48.1433359 188.46,47.63 C188.593334,47.1166641 188.806665,46.6800018 189.1,46.32 C189.393335,45.9599982 189.779998,45.6866676 190.26,45.5 C190.740002,45.3133324 191.319997,45.22 192,45.22 L192,43.42 C191.079995,43.3933332 190.320003,43.579998 189.72,43.98 C189.119997,44.380002 188.613335,44.9999958 188.2,45.84 L188.16,45.84 L188.16,43.66 L186.56,43.66 Z" id="simple-churchplanner-copy"></path>
            </g>
        </g>
    </g>
</svg>